<svg xmlns="http://www.w3.org/2000/svg" xmlns:xlink="http://www.w3.org/1999/xlink"><defs><symbol viewBox="0 0 24 24" id="i-arrow-back" xmlns="http://www.w3.org/2000/svg"><path d="M0 0h24v24H0z" fill="none"/><path d="M20 11H7.83l5.59-5.59L12 4l-8 8 8 8 1.41-1.41L7.83 13H20v-2z"/></symbol><symbol viewBox="0 0 24 24" id="i-arrow-back-minimalist" xmlns="http://www.w3.org/2000/svg"><path d="M11.67 3.87L9.9 2.1 0 12l9.9 9.9 1.77-1.77L3.54 12z"/><path fill="none" d="M0 0h24v24H0z"/></symbol><symbol viewBox="0 0 24 24" id="i-arrow-forward" xmlns="http://www.w3.org/2000/svg"><path d="M0 0h24v24H0z" fill="none"/><path d="M12 4l-1.41 1.41L16.17 11H4v2h12.17l-5.58 5.59L12 20l8-8z"/></symbol><symbol viewBox="0 0 24 24" id="i-attach" xmlns="http://www.w3.org/2000/svg"><path d="M16.5 6v11.5c0 2.21-1.79 4-4 4s-4-1.79-4-4V5a2.5 2.5 0 0 1 5 0v10.5c0 .55-.45 1-1 1s-1-.45-1-1V6H10v9.5a2.5 2.5 0 0 0 5 0V5c0-2.21-1.79-4-4-4S7 2.79 7 5v12.5c0 3.04 2.46 5.5 5.5 5.5s5.5-2.46 5.5-5.5V6h-1.5z"/><path d="M0 0h24v24H0z" fill="none"/></symbol><symbol viewBox="0 0 24 24" id="i-balloon-checked" xmlns="http://www.w3.org/2000/svg"><path d="M0 0h24v24H0z" fill="none"/><path d="M20 2c1.1 0 2 .9 2 2v12c0 1.1-.9 2-2 2H6l-4 4V4c0-1.1.9-2 2-2h16zm-9.056 11.62h.025a.737.737 0 0 0 .527-.245l5.152-5.776a.713.713 0 0 0-.069-1.02.743.743 0 0 0-1.038.068l-4.633 5.196-1.652-1.62a.747.747 0 0 0-1.04 0 .713.713 0 0 0 0 1.02l2.207 2.166a.75.75 0 0 0 .521.211z"/></symbol><symbol viewBox="0 0 24 24" id="i-bug-report" xmlns="http://www.w3.org/2000/svg"><path d="M0 0h24v24H0z" fill="none"/><path d="M20 8h-2.81a5.985 5.985 0 0 0-1.82-1.96L17 4.41 15.59 3l-2.17 2.17C12.96 5.06 12.49 5 12 5c-.49 0-.96.06-1.41.17L8.41 3 7 4.41l1.62 1.63C7.88 6.55 7.26 7.22 6.81 8H4v2h2.09c-.05.33-.09.66-.09 1v1H4v2h2v1c0 .34.04.67.09 1H4v2h2.81c1.04 1.79 2.97 3 5.19 3s4.15-1.21 5.19-3H20v-2h-2.09c.05-.33.09-.66.09-1v-1h2v-2h-2v-1c0-.34-.04-.67-.09-1H20V8zm-6 8h-4v-2h4v2zm0-4h-4v-2h4v2z"/></symbol><symbol viewBox="0 0 24 24" id="i-campus" xmlns="http://www.w3.org/2000/svg"><path d="M0 0h24v24H0z" fill="none"/><path d="M4 10v7h3v-7H4zm6 0v7h3v-7h-3zM2 22h19v-3H2v3zm14-12v7h3v-7h-3zm-4.5-9L2 6v2h19V6l-9.5-5z"/></symbol><symbol viewBox="0 0 24 24" id="i-check" xmlns="http://www.w3.org/2000/svg"><path d="M0 0h24v24H0z" fill="none"/><path d="M9 16.17L4.83 12l-1.42 1.41L9 19 21 7l-1.41-1.41z"/></symbol><symbol viewBox="0 0 24 24" id="i-chevron-left" xmlns="http://www.w3.org/2000/svg"><path d="M15.41 16.09l-4.58-4.59 4.58-4.59L14 5.5l-6 6 6 6z"/><path d="M0-.5h24v24H0z" fill="none"/></symbol><symbol viewBox="0 0 24 24" id="i-chevron-right" xmlns="http://www.w3.org/2000/svg"><path d="M8.59 16.34l4.58-4.59-4.58-4.59L10 5.75l6 6-6 6z"/><path d="M0-.25h24v24H0z" fill="none"/></symbol><symbol viewBox="0 0 10 6" id="i-chevron-up" xmlns="http://www.w3.org/2000/svg"><defs><path d="M7.92-.743L4.435 2.743 7.92 6.228l-1 1-4.485-4.485L6.92-1.743l1 1z" id="aka"/></defs><g transform="matrix(0 1 1 0 2.08 -1.92)" fill="none" fill-rule="evenodd"><use xlink:href="#aka"/><path stroke="#E8ECF1" d="M7.213-.743l-.293-.293-3.778 3.779L6.92 6.52l.293-.293-3.485-3.485L7.213-.743z"/></g></symbol><symbol viewBox="0 0 24 24" id="i-clock" xmlns="http://www.w3.org/2000/svg"><path d="M11.99 2C6.47 2 2 6.48 2 12s4.47 10 9.99 10C17.52 22 22 17.52 22 12S17.52 2 11.99 2zM12 20c-4.42 0-8-3.58-8-8s3.58-8 8-8 8 3.58 8 8-3.58 8-8 8z"/><path d="M0 0h24v24H0z" fill="none"/><path d="M12.5 7H11v6l5.25 3.15.75-1.23-4.5-2.67z"/></symbol><symbol viewBox="0 0 24 24" id="i-close" xmlns="http://www.w3.org/2000/svg"><path d="M19 6.41L17.59 5 12 10.59 6.41 5 5 6.41 10.59 12 5 17.59 6.41 19 12 13.41 17.59 19 19 17.59 13.41 12z"/><path d="M0 0h24v24H0z" fill="none"/></symbol><symbol viewBox="0 0 24 24" id="i-delete" xmlns="http://www.w3.org/2000/svg"><path d="M6 19c0 1.1.9 2 2 2h8c1.1 0 2-.9 2-2V7H6v12zM19 4h-3.5l-1-1h-5l-1 1H5v2h14V4z"/><path d="M0 0h24v24H0z" fill="none"/></symbol><symbol viewBox="0 0 20 20" id="i-digital-admission" xmlns="http://www.w3.org/2000/svg"><path d="M10 19.963c-5.523 0-10-4.452-10-9.945C0 4.526 4.477.074 10 .074s10 4.452 10 9.944c0 5.493-4.477 9.945-10 9.945zM6.5 4.5a1 1 0 0 0-1 1v9a1 1 0 0 0 1 1h7a1 1 0 0 0 1-1v-9a1 1 0 0 0-1-1h-7zM7 6.182h3v1H7v-1zm0 2h6v1H7v-1zm0 2h6v1H7v-1zm0 2h6v1H7v-1z" fill="#18ACC4" fill-rule="evenodd"/></symbol><symbol viewBox="0 0 24 24" id="i-doublecheck" xmlns="http://www.w3.org/2000/svg"><path d="M0 0h24v24H0z" fill="none"/><path d="M18 7l-1.41-1.41-6.34 6.34 1.41 1.41L18 7zm4.24-1.41L11.66 16.17 7.48 12l-1.41 1.41L11.66 19l12-12-1.42-1.41zM.41 13.41L6 19l1.41-1.41L1.83 12 .41 13.41z"/></symbol><symbol viewBox="0 0 24 24" id="i-edit" xmlns="http://www.w3.org/2000/svg"><path d="M3 17.25V21h3.75L17.81 9.94l-3.75-3.75L3 17.25zM20.71 7.04a.996.996 0 0 0 0-1.41l-2.34-2.34a.996.996 0 0 0-1.41 0l-1.83 1.83 3.75 3.75 1.83-1.83z"/><path d="M0 0h24v24H0z" fill="none"/></symbol><symbol viewBox="0 0 24 24" id="i-engine" xmlns="http://www.w3.org/2000/svg"><path d="M12 16.364a4.364 4.364 0 1 1 0-8.728 4.364 4.364 0 0 1 0 8.728zm0-9.819a5.455 5.455 0 1 0 0 10.91 5.455 5.455 0 0 0 0-10.91zm10.91 6.802l-.013.005-1.116.279a1.091 1.091 0 0 0-.79.776 9.234 9.234 0 0 1-.932 2.244c-.2.343-.197.768.008 1.109l.6 1-1.906 1.907-.011-.006-.997-.598a1.09 1.09 0 0 0-1.106-.009 9.267 9.267 0 0 1-2.238.928 1.09 1.09 0 0 0-.776.79l-.282 1.125a.28.28 0 0 1-.004.013h-2.695l-.285-1.14a1.09 1.09 0 0 0-.776-.788 9.284 9.284 0 0 1-2.239-.928 1.086 1.086 0 0 0-1.106.01l-.996.597a.082.082 0 0 1-.012.006L3.333 18.76l.6-1.002c.205-.34.208-.765.009-1.108a9.21 9.21 0 0 1-.933-2.244 1.092 1.092 0 0 0-.79-.776l-1.116-.28-.012-.004v-2.695l1.128-.282c.384-.096.687-.393.79-.777a9.21 9.21 0 0 1 .933-2.244c.2-.343.196-.768-.009-1.108l-.593-.99c-.001-.004-.004-.008-.006-.011L5.24 3.333l1.007.604a1.094 1.094 0 0 0 1.107.009 9.239 9.239 0 0 1 2.238-.927c.383-.103.68-.405.776-.79l.285-1.138h2.695a.149.149 0 0 1 .004.012l.282 1.126c.096.385.393.687.776.79.78.208 1.533.52 2.238.927a1.09 1.09 0 0 0 1.106-.009l1.007-.604 1.907 1.906-.006.012-.594.989a1.09 1.09 0 0 0-.008 1.11 9.25 9.25 0 0 1 .932 2.243c.103.384.405.68.79.777l1.128.282v2.695zm.29-3.746l-1.155-.29a10.314 10.314 0 0 0-1.043-2.51l.615-1.023c.189-.366.312-.82 0-1.131l-2.263-2.263a.671.671 0 0 0-.493-.197c-.219 0-.448.083-.638.197l-1.03.618c-.776-.449-1.615-.8-2.502-1.037L14.4.8c-.125-.392-.358-.8-.8-.8h-3.2c-.442 0-.7.408-.8.8l-.291 1.165c-.887.237-1.726.588-2.502 1.037l-1.03-.618a1.296 1.296 0 0 0-.638-.197.671.671 0 0 0-.493.197L2.383 4.647c-.312.312-.189.765 0 1.131l.615 1.024a10.29 10.29 0 0 0-1.043 2.509L.8 9.6c-.392.099-.8.357-.8.8v3.2c0 .441.408.674.8.799l1.155.29c.238.889.591 1.73 1.043 2.508l-.615 1.025c-.206.348-.312.818 0 1.13l2.263 2.264a.65.65 0 0 0 .476.19c.22 0 .45-.085.655-.19l1.03-.618a10.3 10.3 0 0 0 2.502 1.036L9.6 23.2c.1.392.358.8.8.8h3.2c.442 0 .675-.408.8-.8l.291-1.165A10.334 10.334 0 0 0 17.192 21l1.03.618c.205.105.437.19.656.19a.649.649 0 0 0 .476-.19l2.263-2.263c.312-.313.206-.783 0-1.131l-.615-1.025a10.29 10.29 0 0 0 1.043-2.509l1.155-.29c.392-.125.8-.358.8-.8v-3.2c0-.442-.408-.7-.8-.8z" fill-rule="evenodd"/></symbol><symbol viewBox="0 0 24 24" id="i-error" xmlns="http://www.w3.org/2000/svg"><path d="M0 0h24v24H0z" fill="none"/><path d="M12 2C6.48 2 2 6.48 2 12s4.48 10 10 10 10-4.48 10-10S17.52 2 12 2zm1 15h-2v-2h2v2zm0-4h-2V7h2v6z"/></symbol><symbol viewBox="0 0 24 24" id="i-eye" xmlns="http://www.w3.org/2000/svg"><path d="M0 0h24v24H0z" fill="none"/><path d="M12 4.5C7 4.5 2.73 7.61 1 12c1.73 4.39 6 7.5 11 7.5s9.27-3.11 11-7.5c-1.73-4.39-6-7.5-11-7.5zM12 17c-2.76 0-5-2.24-5-5s2.24-5 5-5 5 2.24 5 5-2.24 5-5 5zm0-8c-1.66 0-3 1.34-3 3s1.34 3 3 3 3-1.34 3-3-1.34-3-3-3z"/></symbol><symbol viewBox="0 0 24 24" id="i-favorite" xmlns="http://www.w3.org/2000/svg"><path d="M0 0h24v24H0z" fill="none"/><path d="M16.5 3c-1.74 0-3.41.81-4.5 2.09C10.91 3.81 9.24 3 7.5 3 4.42 3 2 5.42 2 8.5c0 3.78 3.4 6.86 8.55 11.54L12 21.35l1.45-1.32C18.6 15.36 22 12.28 22 8.5 22 5.42 19.58 3 16.5 3zm-4.4 15.55l-.1.1-.1-.1C7.14 14.24 4 11.39 4 8.5 4 6.5 5.5 5 7.5 5c1.54 0 3.04.99 3.57 2.36h1.87C13.46 5.99 14.96 5 16.5 5c2 0 3.5 1.5 3.5 3.5 0 2.89-3.14 5.74-7.9 10.05z"/></symbol><symbol viewBox="0 0 24 24" id="i-file" xmlns="http://www.w3.org/2000/svg"><path d="M6 2c-1.1 0-1.99.9-1.99 2L4 20c0 1.1.89 2 1.99 2H18c1.1 0 2-.9 2-2V8l-6-6H6zm7 7V3.5L18.5 9H13z"/><path d="M0 0h24v24H0z" fill="none"/></symbol><symbol viewBox="0 0 24 24" id="i-file-copy" xmlns="http://www.w3.org/2000/svg"><path fill="none" d="M0 0h24v24H0V0z"/><path d="M16 1H4c-1.1 0-2 .9-2 2v14h2V3h12V1zm-1 4H8c-1.1 0-1.99.9-1.99 2L6 21c0 1.1.89 2 1.99 2H19c1.1 0 2-.9 2-2V11l-6-6zM8 21V7h6v5h5v9H8z"/></symbol><symbol viewBox="0 0 24 24" id="i-find-in-page" xmlns="http://www.w3.org/2000/svg"><path d="M0 0h24v24H0z" fill="none"/><path d="M20 19.59V8l-6-6H6c-1.1 0-1.99.9-1.99 2L4 20c0 1.1.89 2 1.99 2H18c.45 0 .85-.15 1.19-.4l-4.43-4.43c-.8.52-1.74.83-2.76.83-2.76 0-5-2.24-5-5s2.24-5 5-5 5 2.24 5 5c0 1.02-.31 1.96-.83 2.75L20 19.59zM9 13c0 1.66 1.34 3 3 3s3-1.34 3-3-1.34-3-3-3-3 1.34-3 3z"/></symbol><symbol viewBox="0 0 24 24" id="i-forward" xmlns="http://www.w3.org/2000/svg"><path d="M12 8V4l8 8-8 8v-4H4V8z"/><path d="M0 0h24v24H0z" fill="none"/></symbol><symbol viewBox="0 0 24 24" id="i-help" xmlns="http://www.w3.org/2000/svg"><path d="M0 0h24v24H0z" fill="none"/><path d="M12 2C6.48 2 2 6.48 2 12s4.48 10 10 10 10-4.48 10-10S17.52 2 12 2zm1 17h-2v-2h2v2zm2.07-7.75l-.9.92C13.45 12.9 13 13.5 13 15h-2v-.5c0-1.1.45-2.1 1.17-2.83l1.24-1.26c.37-.36.59-.86.59-1.41 0-1.1-.9-2-2-2s-2 .9-2 2H8c0-2.21 1.79-4 4-4s4 1.79 4 4c0 .88-.36 1.68-.93 2.25z"/></symbol><symbol viewBox="0 0 24 24" id="i-hour-glass" xmlns="http://www.w3.org/2000/svg"><path fill="none" d="M0 0h24v24H0V0z"/><path d="M6 4v3.17c0 .53.21 1.04.59 1.42L10 12l-3.42 3.42c-.37.38-.58.89-.58 1.42V20c0 1.1.9 2 2 2h8c1.1 0 2-.9 2-2v-3.16c0-.53-.21-1.04-.58-1.41L14 12l3.41-3.4c.38-.38.59-.89.59-1.42V4c0-1.1-.9-2-2-2H8c-1.1 0-2 .9-2 2z"/></symbol><symbol viewBox="0 0 24 24" id="i-import-contacts" xmlns="http://www.w3.org/2000/svg"><defs><path id="bba" d="M0 0h24v24H0V0z"/></defs><clipPath id="bbb"><use xlink:href="#bba" overflow="visible"/></clipPath><path clip-path="url(#bbb)" d="M21 5c-1.11-.35-2.33-.5-3.5-.5-1.95 0-4.05.4-5.5 1.5-1.45-1.1-3.55-1.5-5.5-1.5S2.45 4.9 1 6v14.65c0 .25.25.5.5.5.1 0 .15-.05.25-.05C3.1 20.45 5.05 20 6.5 20c1.95 0 4.05.4 5.5 1.5 1.35-.85 3.8-1.5 5.5-1.5 1.65 0 3.35.3 4.75 1.05.1.05.15.05.25.05.25 0 .5-.25.5-.5V6c-.6-.45-1.25-.75-2-1zm0 13.5c-1.1-.35-2.3-.5-3.5-.5-1.7 0-4.15.65-5.5 1.5V8c1.35-.85 3.8-1.5 5.5-1.5 1.2 0 2.4.15 3.5.5v11.5z"/></symbol><symbol viewBox="0 0 24 24" id="i-inbox" xmlns="http://www.w3.org/2000/svg"><path d="M19 3H4.99c-1.11 0-1.98.9-1.98 2L3 19c0 1.1.88 2 1.99 2H19c1.1 0 2-.9 2-2V5c0-1.1-.9-2-2-2zm0 12h-4c0 1.66-1.35 3-3 3s-3-1.34-3-3H4.99V5H19v10zm-3-5h-2V7h-4v3H8l4 4 4-4z"/><path d="M0 0h24v24H0V0z" fill="none"/></symbol><symbol viewBox="0 0 24 24" id="i-insert-drive-file" xmlns="http://www.w3.org/2000/svg"><path d="M6 2c-1.1 0-1.99.9-1.99 2L4 20c0 1.1.89 2 1.99 2H18c1.1 0 2-.9 2-2V8l-6-6H6zm7 7V3.5L18.5 9H13z"/><path d="M0 0h24v24H0z" fill="none"/></symbol><symbol viewBox="0 0 24 24" id="i-library-books" xmlns="http://www.w3.org/2000/svg"><path d="M0 0h24v24H0z" fill="none"/><path d="M4 6H2v14c0 1.1.9 2 2 2h14v-2H4V6zm16-4H8c-1.1 0-2 .9-2 2v12c0 1.1.9 2 2 2h12c1.1 0 2-.9 2-2V4c0-1.1-.9-2-2-2zm-1 9H9V9h10v2zm-4 4H9v-2h6v2zm4-8H9V5h10v2z"/></symbol><symbol viewBox="0 0 221 52" id="i-logo-opa-vert" xmlns="http://www.w3.org/2000/svg"><path d="M52.94 25.95C52.94 11.653 41.093.055 26.49.055 11.885.055.037 11.617.037 25.914c0 14.297 11.848 25.86 26.452 25.86h23.843l-6.687-6.165c5.7-4.741 9.295-11.78 9.295-19.659zM17.037 12.29c2.57 0 4.657 2.042 4.657 4.56 0 2.516-2.086 4.558-4.657 4.558-2.57 0-4.657-2.042-4.657-4.559 0-2.535 2.086-4.559 4.657-4.559zm26.297 16.235c.378.29.565.683.563 1.178l-.045 5.791c.013.277-.035.573-.146.886-.11.314-.253.588-.43.821a3.098 3.098 0 0 0-.12.143 4.26 4.26 0 0 1-.274.296c-.278.278-.775.681-1.491 1.208-.716.528-1.71 1.056-2.979 1.586-1.27.53-2.845.995-4.726 1.396-1.881.401-4.111.6-6.69.595-2.026.023-3.832-.086-5.419-.327-1.587-.242-2.974-.546-4.16-.912-1.186-.367-2.197-.764-3.033-1.19-.836-.427-1.519-.832-2.049-1.216s-.919-.714-1.165-.99a25.741 25.741 0 0 0-.414-.457 2.975 2.975 0 0 1-.422-.818 2.308 2.308 0 0 1-.139-.884l.024-5.814c.001-.407.134-.743.397-1.006.19-.19.413-.304.668-.342.255-.037.514-.027.776.03l6.766 2.07c.364.1.655.318.872.652.217.335.325.691.323 1.07l-.008 2.142c0 .058.021.13.064.218a.754.754 0 0 0 .13.196c.364.247.844.463 1.44.65.524.173 1.22.327 2.086.462.866.134 1.962.192 3.288.172 1.326.01 2.43-.057 3.312-.2.882-.141 1.582-.297 2.1-.467.518-.17.886-.327 1.105-.474l.33-.22a.745.745 0 0 0 .11-.175.52.52 0 0 0 .066-.22l-.012-2.512a1.91 1.91 0 0 1 .573-1.27c.25-.249.49-.403.723-.462l.022-.022 6.717-1.754c.496-.118.918-.062 1.267.17zm-7.783-7.117c-2.57 0-4.657-2.042-4.657-4.559 0-2.517 2.087-4.559 4.657-4.559 2.571 0 4.657 2.042 4.657 4.56-.018 2.516-2.086 4.558-4.657 4.558zM63 21.513V2.487c0-1.389.738-2.1 2.117-2.1h7.986c4.618 0 7.665 3.521 7.665 8.302 0 4.813-3.047 8.398-7.665 8.398h-3.336v4.426c0 1.356-.705 2.1-2.084 2.1h-2.566c-1.38 0-2.117-.744-2.117-2.1zm6.767-10.24h1.893c1.603 0 2.245-1.163 2.245-2.584s-.642-2.487-2.117-2.487h-2.02v5.071zm9.614 9.917L85.635 2.1C86.02.937 86.758.388 88.008.388h3.496c1.22 0 1.989.549 2.374 1.712l6.254 19.09c.513 1.453-.193 2.422-1.7 2.422h-2.598c-1.25 0-1.988-.581-2.373-1.776l-.481-2.261h-6.511l-.481 2.26c-.32 1.196-1.09 1.777-2.31 1.777h-2.597c-1.508 0-2.213-.969-1.7-2.422zm8.627-7.01h3.432l-.705-3.23c-.417-1.583-.963-4.296-.963-4.296h-.064s-.513 2.713-.93 4.296l-.77 3.23zm13.27 7.333V2.487c0-1.389.738-2.1 2.117-2.1h2.566c1.379 0 2.085.711 2.085 2.1v19.026c0 1.356-.706 2.1-2.085 2.1h-2.566c-1.379 0-2.117-.744-2.117-2.1zm9.293 0V2.487c0-1.389.738-2.1 2.117-2.1h3.08c1.186 0 1.955.42 2.5 1.422l3.785 7.462c.93 1.68 1.957 4.263 1.957 4.263h.064s-.289-2.713-.289-4.263V2.487c0-1.389.706-2.1 2.085-2.1h2.566c1.379 0 2.116.711 2.116 2.1v19.026c0 1.356-.737 2.1-2.116 2.1h-3.08c-1.154 0-1.924-.42-2.469-1.422l-3.816-7.43c-.93-1.647-1.957-4.23-1.957-4.23h-.064s.289 2.68.289 4.23v6.752c0 1.356-.706 2.1-2.085 2.1h-2.566c-1.379 0-2.117-.744-2.117-2.1zm22.507 0V2.487c0-1.389.738-2.1 2.117-2.1h10.744c1.347 0 2.085.711 2.085 2.1v1.615c0 1.357-.738 2.1-2.085 2.1h-6.094v2.81h4.362c1.38 0 2.117.743 2.117 2.1v1.615c0 1.389-.738 2.1-2.117 2.1h-4.362v2.971h6.479c1.38 0 2.117.743 2.117 2.1v1.615c0 1.356-.738 2.1-2.117 2.1h-11.13c-1.378 0-2.116-.744-2.116-2.1zm16.83 0V2.487c0-1.389.738-2.1 2.117-2.1h2.566c1.379 0 2.084.711 2.084 2.1v15.311h6.896c1.379 0 2.117.743 2.117 2.1v1.615c0 1.356-.738 2.1-2.117 2.1h-11.546c-1.38 0-2.117-.744-2.117-2.1zm23.686 0V2.487c0-1.389.737-2.1 2.116-2.1h6.319c7.376 0 12.027 4.264 12.027 11.565 0 7.267-4.65 11.66-12.027 11.66h-6.319c-1.379 0-2.116-.743-2.116-2.1zm6.767-3.715h1.443c3.336 0 5.26-2.003 5.26-5.846 0-3.844-2.053-5.75-5.26-5.75h-1.443v11.596zm14.296-5.943C194.657 5.2 199.5 0 206.812 0 214.125 0 219 5.2 219 11.855 219 18.67 214.125 24 206.812 24c-7.312 0-12.155-5.33-12.155-12.145zm6.992 0c0 3.391 2.117 5.943 5.163 5.943 3.08 0 5.196-2.552 5.196-5.943 0-3.23-2.117-5.653-5.196-5.653-3.046 0-5.163 2.422-5.163 5.653zM61 40.36C61 33.985 65.634 29 72.63 29c6.997 0 11.661 4.984 11.661 11.36 0 6.532-4.664 11.64-11.66 11.64C65.633 52 61 46.892 61 40.36zm6.69 0c0 3.251 2.025 5.697 4.94 5.697 2.946 0 4.972-2.446 4.972-5.696 0-3.096-2.026-5.418-4.972-5.418-2.915 0-4.94 2.322-4.94 5.418zm18.067 9.256V31.384c0-1.332.705-2.013 2.025-2.013h7.64c4.42 0 7.335 3.375 7.335 7.956 0 4.612-2.915 8.049-7.334 8.049H92.23v4.24c0 1.3-.675 2.013-1.994 2.013h-2.455c-1.32 0-2.025-.712-2.025-2.013zm6.474-9.813h1.811c1.534 0 2.148-1.114 2.148-2.476 0-1.362-.614-2.384-2.025-2.384H92.23v4.86zm11.592 9.813V31.384c0-1.332.706-2.013 2.026-2.013h10.28c1.289 0 1.994.681 1.994 2.013v1.547c0 1.3-.705 2.012-1.994 2.012h-5.83v2.694h4.173c1.32 0 2.025.712 2.025 2.012v1.548c0 1.33-.706 2.012-2.025 2.012h-4.174v2.848h6.2c1.319 0 2.024.712 2.024 2.012v1.547c0 1.3-.705 2.013-2.025 2.013H105.85c-1.32 0-2.026-.712-2.026-2.013zm16.103 0V31.384c0-1.332.706-2.013 2.026-2.013h5.984c2.025 0 3.406.124 4.388.465 2.485.836 4.327 3.405 4.327 6.686 0 2.26-.921 4.891-3.07 6.222v.062s.492.557.983 1.424l2.762 4.953c.859 1.548.092 2.446-1.381 2.446h-2.854c-.951 0-1.81-.372-2.363-1.424l-2.792-5.449H126.4v4.86c0 1.3-.675 2.013-1.994 2.013h-2.455c-1.32 0-2.026-.712-2.026-2.013zm6.475-10.432h1.381c1.534 0 2.302-.68 2.302-2.352 0-.588-.092-1.27-.982-1.64-.491-.218-1.013-.249-1.719-.249h-.982v4.241zm10.978 10.123l5.984-18.295c.369-1.114 1.074-1.64 2.271-1.64h3.345c1.166 0 1.903.526 2.27 1.64l5.985 18.295c.49 1.393-.184 2.322-1.627 2.322h-2.485c-1.197 0-1.903-.558-2.271-1.703l-.46-2.167h-6.23l-.46 2.167c-.307 1.145-1.043 1.703-2.21 1.703h-2.485c-1.442 0-2.118-.93-1.627-2.322zm8.255-6.717h3.284l-.675-3.096c-.4-1.517-.921-4.117-.921-4.117h-.061s-.491 2.6-.89 4.117l-.737 3.096zm12.697 7.026V31.384c0-1.332.706-2.013 2.025-2.013h6.045c7.058 0 11.508 4.087 11.508 11.083 0 6.965-4.45 11.175-11.508 11.175h-6.045c-1.32 0-2.025-.712-2.025-2.013zm6.475-3.56h1.38c3.192 0 5.033-1.919 5.033-5.602 0-3.684-1.964-5.51-5.032-5.51h-1.381v11.113zm13.678-5.695c0-6.377 4.634-11.361 11.63-11.361 6.997 0 11.662 4.984 11.662 11.36 0 6.532-4.665 11.64-11.661 11.64-6.997 0-11.63-5.108-11.63-11.64zm6.69 0c0 3.25 2.025 5.696 4.94 5.696 2.947 0 4.972-2.446 4.972-5.696 0-3.096-2.025-5.418-4.971-5.418-2.916 0-4.94 2.322-4.94 5.418zm18.067 9.255V31.384c0-1.332.706-2.013 2.025-2.013h5.984c2.026 0 3.406.124 4.388.465 2.486.836 4.327 3.405 4.327 6.686 0 2.26-.92 4.891-3.068 6.222v.062s.49.557.982 1.424l2.761 4.953c.86 1.548.092 2.446-1.38 2.446h-2.854c-.952 0-1.811-.372-2.363-1.424l-2.793-5.449h-1.534v4.86c0 1.3-.675 2.013-1.995 2.013h-2.455c-1.32 0-2.025-.712-2.025-2.013zm6.475-10.432h1.38c1.535 0 2.302-.68 2.302-2.352 0-.588-.092-1.27-.982-1.64-.49-.218-1.012-.249-1.718-.249h-.982v4.241z"/></symbol><symbol viewBox="0 0 24 24" id="i-logout" xmlns="http://www.w3.org/2000/svg"><path d="M0 0h24v24H0z" fill="none"/><path d="M13 3h-2v10h2V3zm4.83 2.17l-1.42 1.42A6.92 6.92 0 0 1 19 12c0 3.87-3.13 7-7 7A6.995 6.995 0 0 1 7.58 6.58L6.17 5.17A8.932 8.932 0 0 0 3 12a9 9 0 0 0 18 0c0-2.74-1.23-5.18-3.17-6.83z"/></symbol><symbol viewBox="0 0 16 16" id="i-matricula-antecipada" xmlns="http://www.w3.org/2000/svg"><defs><path id="bha" d="M0 .001h3.259v3.266H0z"/><path id="bhc" d="M.111.001H3.19v3.266H.111z"/><path id="bhe" d="M.05.015h13.36v15.223H.05z"/></defs><g fill="none" fill-rule="evenodd"><g transform="translate(0 1.195)"><mask id="bhb" fill="#fff"><use xlink:href="#bha"/></mask><path d="M3.11.15a.51.51 0 0 0-.722 0L.15 2.396a.51.51 0 0 0 .721.721L3.11.874a.514.514 0 0 0 0-.723" fill="#FFF" fill-rule="nonzero" mask="url(#bhb)"/></g><g transform="translate(11.951 1.195)"><mask id="bhd" fill="#fff"><use xlink:href="#bhc"/></mask><path d="M3.048 2.395L.934.151a.463.463 0 0 0-.682 0 .534.534 0 0 0 0 .723l2.115 2.243a.46.46 0 0 0 .68 0 .531.531 0 0 0 0-.722" fill="#FFF" fill-rule="nonzero" mask="url(#bhd)"/></g><g transform="translate(.896)"><mask id="bhf" fill="#fff"><use xlink:href="#bhe"/></mask><path d="M6.729 14.255c-3.152 0-5.706-2.583-5.706-5.77 0-3.185 2.554-5.768 5.706-5.768 3.153 0 5.708 2.583 5.708 5.768 0 3.187-2.555 5.77-5.708 5.77M6.85 1.73v-.727c0-.003.003-.005.006-.005h1.21A.49.49 0 0 0 8.55.482C8.538.215 8.298.015 8.033.015h-2.85c-.265 0-.505.2-.517.467a.49.49 0 0 0 .484.516h1.21c.003 0 .006.002.006.005v.735a.005.005 0 0 1-.005.005C2.843 1.937.05 4.882.05 8.485c0 1.687.611 3.23 1.624 4.413.002.003.002.006 0 .008l-.918.925a.25.25 0 0 0 0 .348.241.241 0 0 0 .345 0l.902-.912a.005.005 0 0 1 .008 0 6.627 6.627 0 0 0 9.435 0 .006.006 0 0 1 .008 0l.902.912a.241.241 0 0 0 .345 0 .25.25 0 0 0 0-.348l-.918-.925a.005.005 0 0 1 0-.008 6.764 6.764 0 0 0 1.625-4.413c0-3.685-2.922-6.681-6.554-6.75a.005.005 0 0 1-.005-.005" fill="#FFF" fill-rule="nonzero" mask="url(#bhf)"/></g><path d="M3.287 8.577c0 1.176.402 2.25 1.066 3.074a.005.005 0 0 0 .007 0l3.407-3.409a.006.006 0 0 0 .001-.004V3.892a.161.161 0 0 0-.005-.006c-2.461-.067-4.476 2.06-4.476 4.691" fill="#FFF" fill-rule="nonzero"/></g></symbol><symbol viewBox="0 0 16 16" id="i-matricula-digital" xmlns="http://www.w3.org/2000/svg"><g fill="none" fill-rule="evenodd"><path fill="#FFF" fill-rule="nonzero" d="M3.712 3.026h8.359v9.731H3.712z"/><g fill="#6CA6C1"><path d="M8.033 15.99C3.635 15.99.01 12.418.01 8.021S3.58 0 7.978 0 16 3.57 16 7.967v.055a7.943 7.943 0 0 1-7.902 7.967h-.065zM5.235 3.57a.849.849 0 0 0-.827.827v7.25a.809.809 0 0 0 .773.826h5.66a.849.849 0 0 0 .827-.827V4.343a.849.849 0 0 0-.827-.827l-5.606.054z"/><path fill-rule="nonzero" d="M5.616 4.887h2.416v1H5.616zm0 1.654h4.833v1H5.616zm0 1.59h4.833v1H5.616zm0 1.589h4.833v1H5.616z"/></g></g></symbol><symbol viewBox="0 0 24 24" id="i-microphone" xmlns="http://www.w3.org/2000/svg"><path d="M12 14c1.66 0 2.99-1.34 2.99-3L15 5c0-1.66-1.34-3-3-3S9 3.34 9 5v6c0 1.66 1.34 3 3 3zm5.3-3c0 3-2.54 5.1-5.3 5.1S6.7 14 6.7 11H5c0 3.41 2.72 6.23 6 6.72V21h2v-3.28c3.28-.48 6-3.3 6-6.72h-1.7z"/><path d="M0 0h24v24H0z" fill="none"/></symbol><symbol viewBox="0 0 24 24" id="i-money" xmlns="http://www.w3.org/2000/svg"><path d="M11.8 10.9c-2.27-.59-3-1.2-3-2.15 0-1.09 1.01-1.85 2.7-1.85 1.78 0 2.44.85 2.5 2.1h2.21c-.07-1.72-1.12-3.3-3.21-3.81V3h-3v2.16c-1.94.42-3.5 1.68-3.5 3.61 0 2.31 1.91 3.46 4.7 4.13 2.5.6 3 1.48 3 2.41 0 .69-.49 1.79-2.7 1.79-2.06 0-2.87-.92-2.98-2.1h-2.2c.12 2.19 1.76 3.42 3.68 3.83V21h3v-2.15c1.95-.37 3.5-1.5 3.5-3.55 0-2.84-2.43-3.81-4.7-4.4z"/><path d="M0 0h24v24H0z" fill="none"/></symbol><symbol viewBox="0 0 24 24" id="i-more-vertical" xmlns="http://www.w3.org/2000/svg"><path d="M0 0h24v24H0z" fill="none"/><path d="M12 8c1.1 0 2-.9 2-2s-.9-2-2-2-2 .9-2 2 .9 2 2 2zm0 2c-1.1 0-2 .9-2 2s.9 2 2 2 2-.9 2-2-.9-2-2-2zm0 6c-1.1 0-2 .9-2 2s.9 2 2 2 2-.9 2-2-.9-2-2-2z"/></symbol><symbol viewBox="0 0 16 16" id="i-nota-quero" xmlns="http://www.w3.org/2000/svg"><g fill="none" fill-rule="evenodd"><path fill="#FFF" fill-rule="nonzero" d="M3.903 3.222h8.303v9.665H3.903z"/><path d="M8 15.881c-4.368 0-7.968-3.546-7.968-7.913C.032 3.6 3.578 0 7.946 0s7.968 3.546 7.968 7.914v.054a7.89 7.89 0 0 1-7.85 7.913H8zM5.222 3.546a.843.843 0 0 0-.822.822v7.2c-.01.432.324.8.768.821h5.621a.843.843 0 0 0 .822-.821V4.314a.843.843 0 0 0-.822-.822l-5.567.054z" fill="#024B5A"/><path fill="#024B5A" fill-rule="nonzero" d="M7.47 9.568L5.46 7.557l.756-.746 1.179 1.178 2.27-2.724.81.67zm-1.881.583h4.768v1.059H5.589z"/></g></symbol><symbol viewBox="0 0 24 24" id="i-notifications" xmlns="http://www.w3.org/2000/svg"><path d="M12 22c1.1 0 2-.9 2-2h-4a2 2 0 0 0 2 2zm6-6v-5c0-3.07-1.64-5.64-4.5-6.32V4c0-.83-.67-1.5-1.5-1.5s-1.5.67-1.5 1.5v.68C7.63 5.36 6 7.92 6 11v5l-2 2v1h16v-1l-2-2z"/></symbol><symbol viewBox="0 0 24 24" id="i-payment" xmlns="http://www.w3.org/2000/svg"><path d="M0 0h24v24H0z" fill="none"/><path d="M20 4H4c-1.11 0-1.99.89-1.99 2L2 18c0 1.11.89 2 2 2h16c1.11 0 2-.89 2-2V6c0-1.11-.89-2-2-2zm0 14H4v-6h16v6zm0-10H4V6h16v2z"/></symbol><symbol viewBox="0 0 24 24" id="i-people" xmlns="http://www.w3.org/2000/svg"><path d="M0 0h24v24H0z" fill="none"/><path d="M16 11c1.66 0 2.99-1.34 2.99-3S17.66 5 16 5c-1.66 0-3 1.34-3 3s1.34 3 3 3zm-8 0c1.66 0 2.99-1.34 2.99-3S9.66 5 8 5C6.34 5 5 6.34 5 8s1.34 3 3 3zm0 2c-2.33 0-7 1.17-7 3.5V19h14v-2.5c0-2.33-4.67-3.5-7-3.5zm8 0c-.29 0-.62.02-.97.05 1.16.84 1.97 1.97 1.97 3.45V19h6v-2.5c0-2.33-4.67-3.5-7-3.5z"/></symbol><symbol viewBox="0 0 24 24" id="i-person-pin" xmlns="http://www.w3.org/2000/svg"><path d="M19 2H5a2 2 0 0 0-2 2v14a2 2 0 0 0 2 2h4l3 3 3-3h4c1.1 0 2-.9 2-2V4c0-1.1-.9-2-2-2zm-7 3.3c1.49 0 2.7 1.21 2.7 2.7 0 1.49-1.21 2.7-2.7 2.7-1.49 0-2.7-1.21-2.7-2.7 0-1.49 1.21-2.7 2.7-2.7zM18 16H6v-.9c0-2 4-3.1 6-3.1s6 1.1 6 3.1v.9z"/><path d="M0 0h24v24H0z" fill="none"/></symbol><symbol viewBox="0 0 24 24" id="i-phone" xmlns="http://www.w3.org/2000/svg"><path d="M0 0h24v24H0z" fill="none"/><path d="M6.62 10.79c1.44 2.83 3.76 5.14 6.59 6.59l2.2-2.2c.27-.27.67-.36 1.02-.24 1.12.37 2.33.57 3.57.57.55 0 1 .45 1 1V20c0 .55-.45 1-1 1-9.39 0-17-7.61-17-17 0-.55.45-1 1-1h3.5c.55 0 1 .45 1 1 0 1.25.2 2.45.57 3.57.11.35.03.74-.25 1.02l-2.2 2.2z"/></symbol><symbol viewBox="0 0 16 16" id="i-protecao-quero" xmlns="http://www.w3.org/2000/svg"><circle fill="#F6921E" cx="8" cy="8" r="8"/><path d="M12.626 5.289c.016-.607-.244-.878-.8-.96a7.793 7.793 0 0 1-2.868-1.018c-.36-.213-.686-.304-1.02-.263-.335-.04-.663.05-1.021.264A7.786 7.786 0 0 1 4.05 4.331c-.555.082-.815.353-.8.959.036 1.361.006 2.72.014 4.088 0 .632.158 1.25.633 1.68 1.012.914 2.176 1.62 3.365 2.285.205.116.443.16.676.125.233.034.47-.01.676-.125 1.186-.666 2.353-1.372 3.365-2.286.475-.428.628-1.047.633-1.679.014-1.364-.023-2.728.014-4.09zM8.46 10.654v.785h-.829v-.772C6.616 10.5 6.155 9.752 6.107 9.16l.995-.223c.036.418.327.793.944.793.36 0 .619-.173.619-.454 0-.21-.159-.346-.446-.41l-.641-.152c-.808-.195-1.306-.685-1.306-1.37 0-.806.605-1.36 1.36-1.49v-.777h.83v.8c.63.115 1.125.603 1.251 1.23l-1.006.267c-.042-.223-.165-.597-.734-.597-.403 0-.605.237-.605.468 0 .195.144.346.425.411l.631.136c.966.218 1.347.778 1.347 1.427s-.475 1.282-1.31 1.434z" fill="#FFF"/></symbol><symbol viewBox="0 0 16 16" id="i-queropago" xmlns="http://www.w3.org/2000/svg"><g fill="none" fill-rule="evenodd"><ellipse fill="#DE9E1F" cx="4.632" cy="11.243" rx="1" ry="1"/><path d="M16 8.011C16 3.588 12.417 0 8 0S0 3.577 0 8s3.583 8 8 8h7.211l-2.022-1.907A7.956 7.956 0 0 0 16 8.011z" fill="#FC8400"/><path d="M5.71 11.105c-.344-.26-.374-.581-.132-.945l.364-.55c.333-.498.707-.3.93-.176.363.197.707.363 1.111.363.334 0 .566-.114.566-.332 0-.8-3.183-.664-3.183-3.01 0-1.141.748-2.034 1.95-2.293v-.29c0-.447.192-.686.627-.686h.05c.415 0 .607.197.607.55v.384c.656.094 1.202.343 1.424.488.334.218.405.55.213.924l-.304.591c-.272.54-.606.384-.889.25-.333-.156-.606-.28-1-.28-.334 0-.556.093-.556.31 0 .82 3.183.644 3.183 2.98 0 1.089-.697 2.116-2.071 2.365v.26c0 .446-.192.685-.607.685h-.05c-.435 0-.627-.197-.627-.55v-.395c-.687-.114-1.344-.446-1.607-.643z" fill="#FFF"/></g></symbol><symbol viewBox="0 0 24 24" id="i-querowhats" xmlns="http://www.w3.org/2000/svg"><path d="M15.597 13.82c-.226.626-1.309 1.197-1.83 1.274-.467.07-1.058.098-1.707-.106a15.666 15.666 0 0 1-1.545-.565c-2.72-1.16-4.495-3.868-4.63-4.047-.136-.18-1.108-1.454-1.108-2.773 0-1.32.7-1.968.95-2.236a1 1 0 0 1 .722-.336c.18 0 .362.002.52.01.166.008.39-.063.61.46.225.536.767 1.856.835 1.99.068.134.113.29.023.47-.09.178-.136.29-.271.447-.136.156-.285.35-.407.47-.136.133-.277.278-.119.547.158.268.702 1.146 1.508 1.857 1.035.913 1.909 1.196 2.18 1.33.27.134.429.112.587-.067.158-.179.678-.783.858-1.051.181-.268.362-.224.61-.134.249.09 1.581.738 1.852.872.271.134.452.201.52.313.068.112.068.648-.158 1.275m4.65-3.809C20.247 4.482 15.714 0 10.123 0 4.533 0 0 4.47 0 10s4.532 10 10.123 10h9.128l-2.561-2.382c2.176-1.836 3.557-4.556 3.557-7.607" fill-rule="evenodd"/></symbol><symbol viewBox="0 0 40 33" id="i-reclame-aqui" xmlns="http://www.w3.org/2000/svg"><g fill="none"><path d="M27.207 21.272h3.828l.317-12.114-4.145 12.114zM14 32.692L27.645 0h10.847l1.454 32.69h-9.38l.162-4.814h-5.695l-1.628 4.815h-9.404l-.001.001z" fill="#007535"/><path d="M14.463 6.812l-1.45 7.79c1.313-.027 2.326-.352 3.04-.973.714-.62 1.195-1.595 1.443-2.922.24-1.3.138-2.274-.308-2.922-.445-.652-1.228-.974-2.347-.974h-.377l-.001.001zM0 32.717L6.083.027h11.084c3.75 0 6.534.903 8.357 2.71 1.822 1.805 2.444 4.26 1.866 7.366-.355 1.91-1.142 3.54-2.363 4.893-1.22 1.35-2.874 2.428-4.96 3.233l4.132 14.487H13.99l-1.993-12.652L9.64 32.717H0z" fill="#90B823"/></g></symbol><symbol viewBox="0 0 24 24" id="i-remove" xmlns="http://www.w3.org/2000/svg"><path fill="none" d="M0 0h24v24H0V0z"/><path d="M18 13H6c-.55 0-1-.45-1-1s.45-1 1-1h12c.55 0 1 .45 1 1s-.45 1-1 1z"/></symbol><symbol viewBox="0 0 24 24" id="i-remove_circle" xmlns="http://www.w3.org/2000/svg"><path fill="none" d="M0 0h24v24H0V0z"/><path d="M12 2C6.48 2 2 6.48 2 12s4.48 10 10 10 10-4.48 10-10S17.52 2 12 2zm4 11H8c-.55 0-1-.45-1-1s.45-1 1-1h8c.55 0 1 .45 1 1s-.45 1-1 1z"/></symbol><symbol viewBox="0 0 24 24" id="i-reports" xmlns="http://www.w3.org/2000/svg"><path d="M0 0h24v24H0z" fill="none"/><path d="M4 6H2v14c0 1.1.9 2 2 2h14v-2H4V6zm16-4H8c-1.1 0-2 .9-2 2v12c0 1.1.9 2 2 2h12c1.1 0 2-.9 2-2V4c0-1.1-.9-2-2-2zm-1 9H9V9h10v2zm-4 4H9v-2h6v2zm4-8H9V5h10v2z"/></symbol><symbol viewBox="0 0 24 24" id="i-room" xmlns="http://www.w3.org/2000/svg"><path d="M12 2C8.13 2 5 5.13 5 9c0 5.25 7 13 7 13s7-7.75 7-13c0-3.87-3.13-7-7-7zm0 9.5a2.5 2.5 0 0 1 0-5 2.5 2.5 0 0 1 0 5z"/><path d="M0 0h24v24H0z" fill="none"/></symbol><symbol viewBox="0 0 24 24" id="i-save" xmlns="http://www.w3.org/2000/svg"><path d="M0 0h24v24H0z" fill="none"/><path d="M17 3H5a2 2 0 0 0-2 2v14a2 2 0 0 0 2 2h14c1.1 0 2-.9 2-2V7l-4-4zm-5 16c-1.66 0-3-1.34-3-3s1.34-3 3-3 3 1.34 3 3-1.34 3-3 3zm3-10H5V5h10v4z"/></symbol><symbol viewBox="0 0 24 24" id="i-schedule" xmlns="http://www.w3.org/2000/svg"><path d="M11.99 2C6.47 2 2 6.48 2 12s4.47 10 9.99 10C17.52 22 22 17.52 22 12S17.52 2 11.99 2zM12 20c-4.42 0-8-3.58-8-8s3.58-8 8-8 8 3.58 8 8-3.58 8-8 8z"/><path d="M0 0h24v24H0z" fill="none"/><path d="M12.5 7H11v6l5.25 3.15.75-1.23-4.5-2.67z"/></symbol><symbol viewBox="0 0 24 24" id="i-school" xmlns="http://www.w3.org/2000/svg"><path d="M0 0h24v24H0z" fill="none"/><path d="M5 13.18v4L12 21l7-3.82v-4L12 17l-7-3.82zM12 3L1 9l11 6 9-4.91V17h2V9L12 3z"/></symbol><symbol viewBox="0 0 20 20" id="i-search" xmlns="http://www.w3.org/2000/svg"><path d="M14.456 13.621a8.181 8.181 0 0 0 2.017-5.385A8.235 8.235 0 0 0 8.236 0 8.235 8.235 0 0 0 0 8.236a8.235 8.235 0 0 0 8.236 8.237c2.064 0 3.94-.76 5.385-2.017l5.375 5.375A.59.59 0 0 0 20 19.41a.59.59 0 0 0-.169-.413l-5.375-5.375zm-6.22 1.67a7.062 7.062 0 0 1-7.063-7.064 7.062 7.062 0 0 1 7.063-7.064A7.062 7.062 0 0 1 15.3 8.227a7.062 7.062 0 0 1-7.064 7.064z" fill="#7D8C93" fill-rule="evenodd"/></symbol><symbol viewBox="0 0 24 24" id="i-send" xmlns="http://www.w3.org/2000/svg"><path d="M2.01 21L23 12 2.01 3 2 10l15 2-15 2z"/><path d="M0 0h24v24H0z" fill="none"/></symbol><symbol viewBox="0 0 24 24" id="i-slack" xmlns="http://www.w3.org/2000/svg"><path d="M9.947 10.977l3.075-1.03 1.03 3.075-3.075 1.03z"/><path d="M9.954 10.958l3.178-1.065 1.028 3.07-3.178 1.065z"/><path d="M22.971 8.667c-2.457-8.19-6-10.096-14.19-7.638-8.19 2.457-10.095 6-7.638 14.19 2.457 8.19 6 10.095 14.19 7.638 8.19-2.457 10.096-6 7.638-14.19zm-4.133 5.314l-1.543.514.534 1.6a1.236 1.236 0 0 1-.781 1.562c-.134.038-.286.076-.42.057a1.271 1.271 0 0 1-1.142-.838l-.534-1.6-3.18 1.067.533 1.6a1.236 1.236 0 0 1-.781 1.562c-.134.038-.286.076-.42.057a1.271 1.271 0 0 1-1.142-.838l-.533-1.6-1.543.514c-.134.038-.286.076-.42.057a1.271 1.271 0 0 1-1.142-.838 1.236 1.236 0 0 1 .78-1.562l1.544-.514-1.029-3.067-1.543.515c-.133.038-.286.076-.419.057a1.271 1.271 0 0 1-1.143-.838 1.236 1.236 0 0 1 .781-1.562l1.543-.515-.533-1.6a1.236 1.236 0 0 1 .78-1.561 1.236 1.236 0 0 1 1.563.78l.533 1.6 3.18-1.066-.532-1.6a1.236 1.236 0 0 1 .78-1.562 1.236 1.236 0 0 1 1.562.78l.534 1.6 1.543-.513a1.236 1.236 0 0 1 1.562.78 1.236 1.236 0 0 1-.781 1.562l-1.543.515 1.028 3.066 1.543-.514a1.236 1.236 0 0 1 1.562.781 1.236 1.236 0 0 1-.78 1.562z"/></symbol><symbol viewBox="0 0 22 22" id="i-smile" xmlns="http://www.w3.org/2000/svg"><g stroke="#D6D8DB" fill="none" fill-rule="evenodd" stroke-linecap="round" stroke-linejoin="round"><path d="M20.583 10.999c0 5.292-4.29 9.583-9.583 9.583S1.417 16.292 1.417 11 5.707 1.415 11 1.415 20.583 5.707 20.583 11z"/><path d="M8.083 8.082a.834.834 0 1 1-1.667 0 .834.834 0 0 1 1.667 0zm7.5 0a.834.834 0 1 1-1.667 0 .834.834 0 0 1 1.667 0zm-11.353 5c.89 2.895 3.583 5 6.77 5a7.086 7.086 0 0 0 6.77-5H4.23z"/></g></symbol><symbol viewBox="0 0 24 24" id="i-star" xmlns="http://www.w3.org/2000/svg"><path d="M0 0h24v24H0z" fill="none"/><path d="M12 17.27L18.18 21l-1.64-7.03L22 9.24l-7.19-.61L12 2 9.19 8.63 2 9.24l5.46 4.73L5.82 21z"/><path d="M0 0h24v24H0z" fill="none"/></symbol><symbol viewBox="0 0 24 24" id="i-success" xmlns="http://www.w3.org/2000/svg"><path d="M0 0h24v24H0z" fill="none"/><path d="M12 2C6.48 2 2 6.48 2 12s4.48 10 10 10 10-4.48 10-10S17.52 2 12 2zm-2 15l-5-5 1.41-1.41L10 14.17l7.59-7.59L19 8l-9 9z"/></symbol><symbol viewBox="0 0 24 24" id="i-timeline" xmlns="http://www.w3.org/2000/svg"><defs><path id="cja" d="M0 0h24v24H0V0z"/></defs><clipPath id="cjb"><use xlink:href="#cja" overflow="visible"/></clipPath><path clip-path="url(#cjb)" d="M23 8c0 1.1-.9 2-2 2a1.7 1.7 0 0 1-.51-.07l-3.56 3.55c.05.16.07.34.07.52 0 1.1-.9 2-2 2s-2-.9-2-2c0-.18.02-.36.07-.52l-2.55-2.55c-.16.05-.34.07-.52.07s-.36-.02-.52-.07l-4.55 4.56c.05.16.07.33.07.51 0 1.1-.9 2-2 2s-2-.9-2-2 .9-2 2-2c.18 0 .35.02.51.07l4.56-4.55C8.02 9.36 8 9.18 8 9c0-1.1.9-2 2-2s2 .9 2 2c0 .18-.02.36-.07.52l2.55 2.55c.16-.05.34-.07.52-.07s.36.02.52.07l3.55-3.56A1.7 1.7 0 0 1 19 8c0-1.1.9-2 2-2s2 .9 2 2z"/></symbol><symbol viewBox="0 0 24 24" id="i-university" xmlns="http://www.w3.org/2000/svg"><path d="M0 0h24v24H0z" fill="none"/><path d="M4 10v7h3v-7H4zm6 0v7h3v-7h-3zM2 22h19v-3H2v3zm14-12v7h3v-7h-3zm-4.5-9L2 6v2h19V6l-9.5-5z"/></symbol><symbol viewBox="0 0 24 24" id="i-wallet" xmlns="http://www.w3.org/2000/svg"><path d="M0 0h24v24H0z" fill="none"/><path d="M21 18v1c0 1.1-.9 2-2 2H5a2 2 0 0 1-2-2V5a2 2 0 0 1 2-2h14c1.1 0 2 .9 2 2v1h-9a2 2 0 0 0-2 2v8a2 2 0 0 0 2 2h9zm-9-2h10V8H12v8zm4-2.5c-.83 0-1.5-.67-1.5-1.5s.67-1.5 1.5-1.5 1.5.67 1.5 1.5-.67 1.5-1.5 1.5z"/></symbol><symbol viewBox="0 0 24 24" id="i-warning" xmlns="http://www.w3.org/2000/svg"><path d="M0 0h24v24H0z" fill="none"/><path d="M1 21h22L12 2 1 21zm12-3h-2v-2h2v2zm0-4h-2v-4h2v4z"/></symbol><symbol viewBox="0 0 32 32" id="i-wpp-audio-error" xmlns="http://www.w3.org/2000/svg"><g stroke-width="1.2" stroke="#E03F50" fill="none" fill-rule="evenodd"><path d="M30.473 15.736c0 8.139-6.598 14.737-14.737 14.737C7.598 30.473 1 23.875 1 15.736 1 7.598 7.598 1 15.736 1c8.139 0 14.737 6.598 14.737 14.736z"/><path d="M10.431 21.041l10.61-10.61m-10.61 0l10.61 10.61" stroke-linecap="round"/></g></symbol><symbol viewBox="0 0 32 32" id="i-wpp-audio-success" xmlns="http://www.w3.org/2000/svg"><g stroke-width="1.2" stroke="#10C979" fill="none" fill-rule="evenodd"><path d="M31 16c0 8.284-6.716 15-15 15-8.284 0-15-6.716-15-15C1 7.716 7.716 1 16 1c8.284 0 15 6.716 15 15z"/><path stroke-linecap="round" stroke-linejoin="round" d="M23.8 10l-9.6 10.8-6-4.8"/></g></symbol></defs></svg>